<?xml version="1.0" encoding="utf-8"?>
<!-- Generator: Adobe Illustrator 28.1.0, SVG Export Plug-In . SVG Version: 6.00 Build 0)  -->
<svg version="1.1" id="Capa_1" xmlns="http://www.w3.org/2000/svg" xmlns:xlink="http://www.w3.org/1999/xlink" x="0px" y="0px"
	 viewBox="0 0 1039.1 312.3" style="enable-background:new 0 0 1039.1 312.3;" xml:space="preserve">
<style type="text/css">
	.st0{fill:none;}
	.st1{enable-background:new    ;}
	.st2{fill:#6C7BFF;}
	.st3{fill:#B3C2FF;}
</style>
<rect x="258.2" y="118.6" class="st0" width="712.5" height="126.4"/>
<g class="st1">
	<path class="st2" d="M277.5,129.2l31.3,78.4l31.7-78.4h18.7l-50.8,121.6l-49.6-121.6H277.5z"/>
	<path class="st2" d="M369,141.3c0-2.9,1-5.4,3.1-7.5c2.1-2.1,4.6-3.1,7.5-3.1c3,0,5.5,1.1,7.6,3.1c2.1,2.1,3.1,4.6,3.1,7.5
		c0,3-1.1,5.5-3.1,7.6c-2.1,2.1-4.6,3.1-7.5,3.1c-3,0-5.5-1-7.6-3.1C370.1,146.9,369,144.3,369,141.3z M388,170.9v71.3h-16.5v-71.3
		H388z"/>
	<path class="st2" d="M450.3,183.1l-13.6,7.3c-2.1-4.4-4.8-6.6-8-6.6c-1.5,0-2.8,0.5-3.9,1.5c-1.1,1-1.6,2.3-1.6,3.8
		c0,2.7,3.2,5.4,9.5,8.1c8.7,3.8,14.6,7.2,17.7,10.4c3,3.2,4.5,7.4,4.5,12.8c0,6.9-2.5,12.6-7.6,17.3c-4.9,4.4-10.9,6.6-17.9,6.6
		c-12,0-20.4-5.8-25.4-17.5l14.1-6.5c2,3.4,3.4,5.6,4.5,6.5c2,1.9,4.4,2.8,7.2,2.8c5.6,0,8.3-2.5,8.3-7.6c0-2.9-2.1-5.7-6.4-8.2
		c-1.7-0.8-3.3-1.6-5-2.4c-1.7-0.8-3.3-1.6-5.1-2.4c-4.8-2.3-8.2-4.7-10.1-7c-2.5-3-3.7-6.8-3.7-11.5c0-6.2,2.1-11.3,6.4-15.4
		c4.3-4.1,9.6-6.1,15.8-6.1C439.1,168.9,445.9,173.7,450.3,183.1z"/>
	<path class="st2" d="M511.2,183.1l-13.6,7.3c-2.1-4.4-4.8-6.6-8-6.6c-1.5,0-2.8,0.5-3.9,1.5c-1.1,1-1.6,2.3-1.6,3.8
		c0,2.7,3.2,5.4,9.5,8.1c8.7,3.8,14.6,7.2,17.7,10.4c3,3.2,4.5,7.4,4.5,12.8c0,6.9-2.5,12.6-7.6,17.3c-4.9,4.4-10.9,6.6-17.9,6.6
		c-12,0-20.4-5.8-25.4-17.5l14.1-6.5c2,3.4,3.4,5.6,4.5,6.5c2,1.9,4.4,2.8,7.2,2.8c5.6,0,8.3-2.5,8.3-7.6c0-2.9-2.1-5.7-6.4-8.2
		c-1.7-0.8-3.3-1.6-5-2.4c-1.7-0.8-3.3-1.6-5.1-2.4c-4.8-2.3-8.2-4.7-10.1-7c-2.5-3-3.7-6.8-3.7-11.5c0-6.2,2.1-11.3,6.4-15.4
		c4.3-4.1,9.6-6.1,15.8-6.1C499.9,168.9,506.7,173.7,511.2,183.1z"/>
	<path class="st2" d="M595.6,210.5h-51.1c0.4,5.9,2.3,10.5,5.7,14c3.4,3.4,7.7,5.1,13,5.1c4.1,0,7.5-1,10.2-2.9
		c2.6-2,5.6-5.6,9-10.8l13.9,7.8c-2.1,3.7-4.4,6.8-6.8,9.4c-2.4,2.6-5,4.8-7.7,6.4c-2.7,1.7-5.7,2.9-8.9,3.7
		c-3.2,0.8-6.6,1.2-10.3,1.2c-10.6,0-19.2-3.4-25.6-10.3c-6.4-6.9-9.7-16-9.7-27.4c0-11.3,3.1-20.4,9.4-27.4
		c6.3-6.9,14.6-10.3,25-10.3c10.5,0,18.8,3.3,24.9,10c6.1,6.6,9.1,15.8,9.1,27.6L595.6,210.5z M578.6,197
		c-2.3-8.8-7.8-13.2-16.6-13.2c-2,0-3.9,0.3-5.6,0.9s-3.4,1.5-4.8,2.6c-1.4,1.1-2.7,2.5-3.7,4.1s-1.8,3.4-2.3,5.5H578.6z"/>
	<path class="st2" d="M613.6,170.9h16.5v6.4c3-3.2,5.7-5.3,8.1-6.5c2.4-1.2,5.2-1.8,8.5-1.8c4.3,0,8.9,1.4,13.6,4.2l-7.5,15.1
		c-3.1-2.2-6.2-3.4-9.2-3.4c-9,0-13.5,6.8-13.5,20.4v37h-16.5V170.9z"/>
	<path class="st2" d="M689.9,129.2v97h33.3v16h-50.3V129.2H689.9z"/>
	<path class="st2" d="M788.8,170.9h16.6v71.3h-16.6v-7.5c-6.8,6.3-14.1,9.5-21.9,9.5c-9.9,0-18-3.6-24.5-10.7
		c-6.4-7.3-9.6-16.4-9.6-27.2c0-10.7,3.2-19.6,9.6-26.7c6.4-7.1,14.4-10.7,24-10.7c8.3,0,15.7,3.4,22.3,10.3V170.9z M749.7,206.4
		c0,6.8,1.8,12.4,5.5,16.7c3.8,4.3,8.5,6.5,14.2,6.5c6.1,0,11-2.1,14.8-6.3c3.8-4.3,5.6-9.9,5.6-16.6c0-6.7-1.9-12.2-5.6-16.6
		c-3.8-4.2-8.6-6.4-14.6-6.4c-5.7,0-10.4,2.1-14.2,6.4C751.5,194.6,749.7,200,749.7,206.4z"/>
	<path class="st2" d="M842.6,118.6v60.6c6.6-6.8,14.1-10.3,22.4-10.3c9.6,0,17.6,3.6,24,10.8c6.4,7.1,9.6,16,9.6,26.7
		c0,11-3.2,20.1-9.7,27.2c-6.4,7.1-14.5,10.7-24.2,10.7c-8.3,0-15.6-3.2-22.1-9.5v7.5h-16.5V118.6H842.6z M881.8,207.1
		c0-6.8-1.9-12.4-5.6-16.7c-3.8-4.4-8.5-6.6-14.1-6.6c-6.1,0-11,2.1-14.8,6.4c-3.8,4.2-5.6,9.7-5.6,16.4c0,6.9,1.9,12.5,5.6,16.6
		c3.7,4.2,8.6,6.4,14.6,6.4c5.7,0,10.4-2.1,14.2-6.4C879.9,218.9,881.8,213.5,881.8,207.1z"/>
	<path class="st2" d="M957.5,183.1l-13.6,7.3c-2.1-4.4-4.8-6.6-8-6.6c-1.5,0-2.8,0.5-3.9,1.5c-1.1,1-1.6,2.3-1.6,3.8
		c0,2.7,3.2,5.4,9.5,8.1c8.7,3.8,14.6,7.2,17.7,10.4c3,3.2,4.5,7.4,4.5,12.8c0,6.9-2.5,12.6-7.6,17.3c-4.9,4.4-10.9,6.6-17.9,6.6
		c-12,0-20.4-5.8-25.4-17.5l14.1-6.5c2,3.4,3.4,5.6,4.5,6.5c2,1.9,4.4,2.8,7.2,2.8c5.6,0,8.3-2.5,8.3-7.6c0-2.9-2.1-5.7-6.4-8.2
		c-1.7-0.8-3.3-1.6-5-2.4c-1.7-0.8-3.3-1.6-5.1-2.4c-4.8-2.3-8.2-4.7-10.1-7c-2.5-3-3.7-6.8-3.7-11.5c0-6.2,2.1-11.3,6.4-15.4
		c4.3-4.1,9.6-6.1,15.8-6.1C946.3,168.9,953.1,173.7,957.5,183.1z"/>
</g>
<g>
	<g>
		<path class="st3" d="M106.9,73.8c10,0,18.2-8.2,18.2-18.2s-8.2-18.2-18.2-18.2s-18.2,8.2-18.2,18.2S96.9,73.8,106.9,73.8z
			 M106.9,48.7c3.9,0,7,3.1,7,7s-3.1,7-7,7s-7-3.1-7-7S103,48.7,106.9,48.7z"/>
		<path class="st3" d="M164.2,61.5c13.9,0,25.2-11.3,25.2-25.2s-11.3-25.2-25.2-25.2S139,22.4,139,36.3S150.3,61.5,164.2,61.5z
			 M164.2,22.4c7.7,0,14,6.3,14,14s-6.3,14-14,14s-14-6.3-14-14S156.5,22.4,164.2,22.4z"/>
		<path class="st3" d="M187.2,218.9c-1.5-2.7-5-3.6-7.6-2c-10.6,6.1-23.8,2.8-37.8-0.8c-15.5-3.9-33.1-8.4-48.9,0.8
			c-0.8,0.5-1.5,1.2-2,2l-23.7,40.7c-2,3.4-2,7.3-0.2,10.5c1.8,3.1,5.2,5,9,5h38c3.1,0,5.6-2.5,5.6-5.6s-2.5-5.6-5.6-5.6H77.7
			l22.1-38c11.6-5.9,25.1-2.5,39.3,1.1c13.8,3.5,28,7.1,41.1,2l20.3,34.9h-36.3c-3.1,0-5.6,2.5-5.6,5.6s2.5,5.6,5.6,5.6h38
			c3.8,0,7.2-1.9,9-5c1.8-3.2,1.8-7.1-0.2-10.5L187.2,218.9z"/>
		<path class="st2" d="M236.1,258.3L167,139.5v-22c6.5-2.3,11.2-8.5,11.2-15.8c0-9.3-7.5-16.8-16.8-16.8h-44.7
			c-9.3,0-16.8,7.5-16.8,16.8c0,7.3,4.7,13.5,11.2,15.8v22.1l-68,116.8c-3.1,4.4-4.7,9.5-4.7,14.9c0,14.4,11.8,26.1,26.3,26.1h148.8
			l0,0c4.5,0,9.1-1.2,13.1-3.5c6.1-3.5,10.4-9.1,12.2-15.9C240.6,271.3,239.7,264.3,236.1,258.3L236.1,258.3z M116.7,96.2h44.7
			c3.1,0,5.6,2.5,5.6,5.6s-2.5,5.6-5.6,5.6h-44.7c-3.1,0-5.6-2.5-5.6-5.6S113.6,96.2,116.7,96.2z M228,275.2c-1,3.9-3.5,7.1-7,9.1
			c-2.4,1.3-5,2.1-7.6,2.1l0,0H64.7c-8.3,0-15.1-6.7-15.1-14.9c0-3.1,1-6.1,2.8-8.6c0.1-0.1,0.2-0.3,0.3-0.4L121.5,144
			c0.5-0.9,0.8-1.8,0.8-2.8v-22.7h33.6V141c0,1,0.3,2,0.8,2.8L226.5,264C228.5,267.4,229,271.4,228,275.2L228,275.2z"/>
		<path class="st3" d="M139,264L139,264c-3.1,0-5.6,2.5-5.6,5.6s2.5,5.6,5.6,5.6s5.6-2.5,5.6-5.6S142.1,264,139,264z"/>
	</g>
</g>
</svg>
